{"glyphs":{"0":{"ha":1153,"x_min":0,"x_max":1085,"o":"m 475 0 q 139 139 278 0 q 0 475 0 278 q 139 810 0 671 q 475 949 278 949 l 610 949 q 946 810 807 949 q 1085 475 1085 671 q 946 139 1085 278 q 610 0 807 0 l 475 0 m 475 678 q 331 618 391 678 q 271 475 271 559 q 331 331 271 391 q 475 271 391 271 l 610 271 q 754 331 694 271 q 814 475 814 391 q 754 618 814 559 q 610 678 694 678 l 475 678 z "},"1":{"ha":339,"x_min":0,"x_max":271,"o":"m 271 0 l 0 0 l 0 780 l 271 1051 l 271 0 z "},"2":{"ha":1153,"x_min":-136,"x_max":1221,"o":"m 136 678 l -136 949 l 780 949 q 996 860 906 949 q 1085 644 1085 770 q 996 429 1085 518 q 780 339 906 339 l 305 339 q 281 329 291 339 q 271 305 271 319 l 271 271 l 949 271 l 1221 0 l 0 0 l 0 305 q 90 521 0 431 q 305 610 179 610 l 780 610 q 804 620 794 610 q 814 644 814 630 q 804 668 814 659 q 780 678 794 678 l 136 678 z "},"3":{"ha":1153,"x_min":-136,"x_max":1085,"o":"m 780 610 q 804 620 794 610 q 814 644 814 630 q 804 668 814 659 q 780 678 794 678 l 136 678 l -136 949 l 780 949 q 996 860 906 949 q 1085 644 1085 770 q 1034 475 1085 549 q 1085 305 1085 400 q 996 90 1085 179 q 780 0 906 0 l -136 0 l 136 271 l 780 271 q 804 281 794 271 q 814 305 814 291 q 804 329 814 319 q 780 339 794 339 l 203 339 l 203 610 l 780 610 z "},"4":{"ha":1153,"x_min":0,"x_max":1085,"o":"m 0 339 l 0 780 l 271 1051 l 271 610 l 814 610 l 814 949 l 1085 949 l 1085 170 l 814 -102 l 814 339 l 0 339 z "},"5":{"ha":1153,"x_min":-136,"x_max":1221,"o":"m -136 0 l 136 271 l 780 271 q 804 281 794 271 q 814 305 814 291 q 804 329 814 319 q 780 339 794 339 l 0 339 l 0 949 l 1221 949 l 949 678 l 271 678 l 271 610 l 780 610 q 996 521 906 610 q 1085 305 1085 431 q 996 90 1085 179 q 780 0 906 0 l -136 0 z "},"6":{"ha":1153,"x_min":0,"x_max":1221,"o":"m 271 339 l 271 305 q 281 281 271 291 q 305 271 291 271 l 780 271 q 804 281 794 271 q 814 305 814 291 q 804 329 814 319 q 780 339 794 339 l 271 339 m 780 610 q 996 521 906 610 q 1085 305 1085 431 q 996 90 1085 179 q 780 0 906 0 l 305 0 q 90 90 179 0 q 0 305 0 179 l 0 644 q 90 860 0 770 q 305 949 179 949 l 1221 949 l 949 678 l 305 678 q 281 668 291 678 q 271 644 271 659 l 271 610 l 780 610 z "},"7":{"ha":1153,"x_min":-136,"x_max":1221,"o":"m 1221 949 l 260 0 l -136 0 l 554 678 l 0 678 l 0 949 l 1221 949 z "},"8":{"ha":1153,"x_min":0,"x_max":1085,"o":"m 780 271 q 804 281 794 271 q 814 305 814 291 q 804 329 814 319 q 780 339 794 339 l 305 339 q 281 329 291 339 q 271 305 271 319 q 281 281 271 291 q 305 271 291 271 l 780 271 m 780 610 q 804 620 794 610 q 814 644 814 630 q 804 668 814 659 q 780 678 794 678 l 305 678 q 281 668 291 678 q 271 644 271 659 q 281 620 271 630 q 305 610 291 610 l 780 610 m 780 949 q 996 860 906 949 q 1085 644 1085 770 q 1034 475 1085 549 q 1085 305 1085 400 q 996 90 1085 179 q 780 0 906 0 l 305 0 q 90 90 179 0 q 0 305 0 179 q 51 475 0 400 q 0 644 0 549 q 90 860 0 770 q 305 949 179 949 l 780 949 z "},"9":{"ha":1153,"x_min":-136,"x_max":1085,"o":"m 814 610 l 814 644 q 804 668 814 659 q 780 678 794 678 l 305 678 q 281 668 291 678 q 271 644 271 659 q 281 620 271 630 q 305 610 291 610 l 814 610 m 305 339 q 90 429 179 339 q 0 644 0 518 q 90 860 0 770 q 305 949 179 949 l 780 949 q 996 860 906 949 q 1085 644 1085 770 l 1085 305 q 996 90 1085 179 q 780 0 906 0 l -136 0 l 136 271 l 780 271 q 804 281 794 271 q 814 305 814 291 l 814 339 l 305 339 z "},"\u0000":{"ha":0,"x_min":0,"x_max":0,"o":""}," ":{"ha":271,"x_min":0,"x_max":0,"o":""},"!":{"ha":339,"x_min":0,"x_max":271,"o":"m 271 271 l 271 0 l 0 0 l 0 271 l 271 271 m 271 949 l 271 339 l 0 339 l 0 949 l 271 949 z "},"\"":{"ha":678,"x_min":0,"x_max":610,"o":"m 271 949 l 271 678 l 0 407 l 0 949 l 271 949 m 610 949 l 610 678 l 339 407 l 339 949 l 610 949 z "},"#":{"ha":1153,"x_min":0,"x_max":1085,"o":"m 407 780 l 678 780 l 678 949 l 949 949 l 949 780 l 1085 780 l 1085 509 l 949 509 l 949 441 l 1085 441 l 1085 170 l 949 170 l 949 102 l 678 -170 l 678 170 l 407 170 l 407 0 l 136 0 l 136 170 l 0 170 l 0 441 l 136 441 l 136 509 l 0 509 l 0 780 l 136 780 l 136 848 l 407 1119 l 407 780 m 678 509 l 407 509 l 407 441 l 678 441 l 678 509 z "},"$":{"ha":1153,"x_min":-136,"x_max":1221,"o":"m 407 610 l 407 678 l 305 678 q 281 668 291 678 q 271 644 271 659 q 281 620 271 630 q 305 610 291 610 l 407 610 m 678 610 l 780 610 q 996 521 906 610 q 1085 305 1085 431 q 996 90 1085 179 q 780 0 906 0 l 678 0 l 678 -136 l 407 -136 l 407 0 l -136 0 l 136 271 l 407 271 l 407 339 l 305 339 q 90 429 179 339 q 0 644 0 518 q 90 860 0 770 q 305 949 179 949 l 407 949 l 407 1085 l 678 1085 l 678 949 l 1221 949 l 949 678 l 678 678 l 678 610 m 678 339 l 678 271 l 780 271 q 804 281 794 271 q 814 305 814 291 q 804 329 814 319 q 780 339 794 339 l 678 339 z "},"%":{"ha":1153,"x_min":-136,"x_max":1221,"o":"m 1221 949 l 260 0 l -136 0 l 825 949 l 1221 949 m 271 678 l 0 678 l 0 949 l 271 949 l 271 678 m 1085 0 l 814 0 l 814 271 l 1085 271 l 1085 0 z "},"&":{"ha":1153,"x_min":0,"x_max":1221,"o":"m 305 0 q 90 90 179 0 q 0 305 0 179 q 51 475 0 400 q 0 644 0 549 q 90 860 0 770 q 305 949 179 949 l 543 949 l 543 678 l 305 678 q 281 668 291 678 q 271 644 271 659 q 281 620 271 630 q 305 610 291 610 l 610 610 l 610 746 l 882 746 l 882 610 l 1085 610 l 1085 339 l 882 339 l 882 271 l 949 271 l 1221 0 l 305 0 m 610 339 l 305 339 q 281 329 291 339 q 271 305 271 319 q 281 281 271 291 q 305 271 291 271 l 610 271 l 610 339 z "},"'":{"ha":339,"x_min":0,"x_max":271,"o":"m 271 949 l 271 678 l 0 407 l 0 949 l 271 949 z "},"(":{"ha":543,"x_min":0,"x_max":475,"o":"m 271 407 q 331 263 271 323 q 475 203 391 203 l 475 -68 q 139 71 278 -68 q 0 407 0 210 l 0 543 q 139 878 0 739 q 475 1017 278 1017 l 475 746 q 331 686 391 746 q 271 543 271 627 l 271 407 z "},")":{"ha":543,"x_min":0,"x_max":475,"o":"m 203 543 q 144 686 203 627 q 0 746 84 746 l 0 1017 q 336 878 197 1017 q 475 543 475 739 l 475 407 q 336 71 475 210 q 0 -68 197 -68 l 0 203 q 144 263 84 203 q 203 407 203 323 l 203 543 z "},"*":{"ha":882,"x_min":-14,"x_max":827,"o":"m 543 308 l 543 136 l 271 136 l 271 308 l 122 222 l -14 456 l 136 543 l -14 629 l 122 863 l 271 777 l 271 949 l 543 949 l 543 777 l 692 863 l 827 629 l 678 543 l 827 456 l 692 222 l 543 308 z "},"+":{"ha":882,"x_min":0,"x_max":814,"o":"m 543 610 l 814 610 l 814 339 l 543 339 l 543 68 l 271 68 l 271 339 l 0 339 l 0 610 l 271 610 l 271 882 l 543 882 l 543 610 z "},",":{"ha":339,"x_min":0,"x_max":271,"o":"m 271 271 l 271 0 l 0 -271 l 0 271 l 271 271 z "},"-":{"ha":882,"x_min":0,"x_max":814,"o":"m 814 339 l 0 339 l 0 610 l 814 610 l 814 339 z "},".":{"ha":339,"x_min":0,"x_max":271,"o":"m 271 271 l 271 0 l 0 0 l 0 271 l 271 271 z "},"/":{"ha":1153,"x_min":-136,"x_max":1221,"o":"m 1221 949 l 260 0 l -136 0 l 825 949 l 1221 949 z "},":":{"ha":339,"x_min":0,"x_max":271,"o":"m 271 271 l 271 0 l 0 0 l 0 271 l 271 271 m 271 694 l 271 423 l 0 423 l 0 694 l 271 694 z "},";":{"ha":339,"x_min":0,"x_max":271,"o":"m 271 271 l 271 0 l 0 -271 l 0 271 l 271 271 m 271 694 l 271 423 l 0 423 l 0 694 l 271 694 z "},"<":{"ha":543,"x_min":0,"x_max":475,"o":"m 271 407 q 331 263 271 323 q 475 203 391 203 l 475 -68 q 139 71 278 -68 q 0 407 0 210 l 0 543 q 139 878 0 739 q 475 1017 278 1017 l 475 746 q 331 686 391 746 q 271 543 271 627 l 271 407 z "},"=":{"ha":882,"x_min":0,"x_max":814,"o":"m 814 509 l 0 509 l 0 780 l 814 780 l 814 509 m 814 170 l 0 170 l 0 441 l 814 441 l 814 170 z "},">":{"ha":543,"x_min":0,"x_max":475,"o":"m 203 543 q 144 686 203 627 q 0 746 84 746 l 0 1017 q 336 878 197 1017 q 475 543 475 739 l 475 407 q 336 71 475 210 q 0 -68 197 -68 l 0 203 q 144 263 84 203 q 203 407 203 323 l 203 543 z "},"?":{"ha":1153,"x_min":0,"x_max":1085,"o":"m 0 678 l 0 949 l 780 949 q 996 860 906 949 q 1085 644 1085 770 q 996 429 1085 518 q 780 339 906 339 l 0 339 l 0 610 l 780 610 q 804 620 794 610 q 814 644 814 630 q 804 668 814 659 q 780 678 794 678 l 0 678 m 271 0 l 0 0 l 0 271 l 271 271 l 271 0 z "},"@":{"ha":1153,"x_min":0,"x_max":1221,"o":"m 475 339 l 475 610 l 780 610 q 804 620 794 610 q 814 644 814 630 q 804 668 814 659 q 780 678 794 678 l 475 678 q 331 618 391 678 q 271 475 271 559 q 331 331 271 391 q 475 271 391 271 l 949 271 l 1221 0 l 475 0 q 139 139 278 0 q 0 475 0 278 q 139 810 0 671 q 475 949 278 949 l 780 949 q 996 860 906 949 q 1085 644 1085 770 q 996 429 1085 518 q 780 339 906 339 l 475 339 z "},"A":{"ha":1153,"x_min":0,"x_max":1085,"o":"m 610 949 q 946 810 807 949 q 1085 475 1085 671 l 1085 170 l 814 -102 l 814 203 l 271 203 l 271 0 l 0 0 l 0 475 q 139 810 0 671 q 475 949 278 949 l 610 949 m 814 475 q 754 618 814 559 q 610 678 694 678 l 475 678 q 331 618 391 678 q 271 475 271 559 l 814 475 z "},"B":{"ha":1153,"x_min":0,"x_max":1085,"o":"m 780 949 q 996 860 906 949 q 1085 644 1085 770 q 1034 475 1085 549 q 1085 305 1085 400 q 996 90 1085 179 q 780 0 906 0 l 576 0 l 305 271 l 780 271 q 804 281 794 271 q 814 305 814 291 q 804 329 814 319 q 780 339 794 339 l 271 339 l 271 -102 l 0 170 l 0 949 l 780 949 m 271 678 l 271 610 l 780 610 q 804 620 794 610 q 814 644 814 630 q 804 668 814 659 q 780 678 794 678 l 271 678 z "},"C":{"ha":1153,"x_min":0,"x_max":1221,"o":"m 475 271 l 1085 271 l 1085 0 l 475 0 q 139 139 278 0 q 0 475 0 278 q 139 810 0 671 q 475 949 278 949 l 1221 949 l 949 678 l 475 678 q 331 618 391 678 q 271 475 271 559 q 331 331 271 391 q 475 271 391 271 z "},"D":{"ha":1153,"x_min":0,"x_max":1085,"o":"m 610 0 l 576 0 l 305 271 l 610 271 q 754 331 694 271 q 814 475 814 391 q 754 618 814 559 q 610 678 694 678 l 271 678 l 271 -102 l 0 170 l 0 949 l 610 949 q 946 810 807 949 q 1085 475 1085 671 q 946 139 1085 278 q 610 0 807 0 z "},"E":{"ha":1153,"x_min":0,"x_max":1221,"o":"m 271 271 l 1085 271 l 1085 0 l 0 0 l 0 949 l 1221 949 l 949 678 l 271 678 l 271 610 l 949 610 l 949 339 l 271 339 l 271 271 z "},"F":{"ha":1153,"x_min":0,"x_max":1221,"o":"m 1221 949 l 949 678 l 271 678 l 271 610 l 1085 610 l 1085 339 l 271 339 l 271 -102 l 0 170 l 0 949 l 1221 949 z "},"G":{"ha":1153,"x_min":0,"x_max":1221,"o":"m 475 949 l 1221 949 l 949 678 l 475 678 q 331 618 391 678 q 271 475 271 559 q 331 331 271 391 q 475 271 391 271 l 814 271 l 814 339 l 475 339 l 475 610 l 1085 610 l 1085 0 l 475 0 q 139 139 278 0 q 0 475 0 278 q 139 810 0 671 q 475 949 278 949 z "},"H":{"ha":1153,"x_min":0,"x_max":1085,"o":"m 271 339 l 271 0 l 0 0 l 0 780 l 271 1051 l 271 610 l 814 610 l 814 949 l 1085 949 l 1085 170 l 814 -102 l 814 339 l 271 339 z "},"I":{"ha":339,"x_min":0,"x_max":271,"o":"m 271 0 l 0 0 l 0 780 l 271 1051 l 271 0 z "},"J":{"ha":1153,"x_min":0,"x_max":1085,"o":"m 814 475 l 814 1051 l 1085 780 l 1085 475 q 946 139 1085 278 q 610 0 807 0 l 475 0 q 139 139 278 0 q 0 475 0 278 l 0 543 l 271 543 l 271 475 q 331 331 271 391 q 475 271 391 271 l 610 271 q 754 331 694 271 q 814 475 814 391 z "},"K":{"ha":1153,"x_min":0,"x_max":1085,"o":"m 271 610 l 610 610 q 754 670 694 610 q 814 814 814 730 l 814 949 l 1085 949 l 1085 814 q 946 478 1085 617 l 943 475 l 946 471 q 1085 203 1085 332 l 1085 170 l 814 -102 l 814 136 q 754 279 814 220 q 610 339 694 339 l 271 339 l 271 0 l 0 0 l 0 780 l 271 1051 l 271 610 z "},"L":{"ha":1153,"x_min":0,"x_max":1221,"o":"m 271 271 l 949 271 l 1221 0 l 0 0 l 0 949 l 271 949 l 271 271 z "},"M":{"ha":1153,"x_min":0,"x_max":1085,"o":"m 271 554 l 271 -102 l 0 170 l 0 949 l 260 949 l 543 667 l 825 949 l 1085 949 l 1085 0 l 814 0 l 814 554 l 543 283 l 271 554 z "},"N":{"ha":1153,"x_min":0,"x_max":1085,"o":"m 814 395 l 814 1051 l 1085 780 l 1085 0 l 825 0 l 271 554 l 271 -102 l 0 170 l 0 949 l 260 949 l 814 395 z "},"O":{"ha":1153,"x_min":0,"x_max":1085,"o":"m 475 0 q 139 139 278 0 q 0 475 0 278 q 139 810 0 671 q 475 949 278 949 l 610 949 q 946 810 807 949 q 1085 475 1085 671 q 946 139 1085 278 q 610 0 807 0 l 475 0 m 475 678 q 331 618 391 678 q 271 475 271 559 q 331 331 271 391 q 475 271 391 271 l 610 271 q 754 331 694 271 q 814 475 814 391 q 754 618 814 559 q 610 678 694 678 l 475 678 z "},"P":{"ha":1153,"x_min":0,"x_max":1085,"o":"m 780 949 q 996 860 906 949 q 1085 644 1085 770 q 996 429 1085 518 q 780 339 906 339 l 271 339 l 271 -102 l 0 170 l 0 949 l 780 949 m 271 678 l 271 610 l 780 610 q 804 620 794 610 q 814 644 814 630 q 804 668 814 659 q 780 678 794 678 l 271 678 z "},"Q":{"ha":1153,"x_min":0,"x_max":1085,"o":"m 475 678 q 331 618 391 678 q 271 475 271 559 q 331 331 271 391 q 475 271 391 271 l 610 271 q 754 331 694 271 q 814 475 814 391 q 754 618 814 559 q 610 678 694 678 l 475 678 m 475 0 q 139 139 278 0 q 0 475 0 278 q 139 810 0 671 q 475 949 278 949 l 610 949 q 946 810 807 949 q 1085 475 1085 671 q 946 139 1085 278 q 872 77 911 104 l 1085 -136 l 701 -136 l 566 0 l 475 0 z "},"R":{"ha":1153,"x_min":0,"x_max":1238,"o":"m 780 949 q 996 860 906 949 q 1085 644 1085 770 q 996 429 1085 518 q 882 356 945 378 l 1238 0 l 854 0 l 271 583 l 271 -102 l 0 170 l 0 949 l 780 949 m 271 678 l 271 610 l 780 610 q 804 620 794 610 q 814 644 814 630 q 804 668 814 659 q 780 678 794 678 l 271 678 z "},"S":{"ha":1153,"x_min":-136,"x_max":1221,"o":"m 1221 949 l 949 678 l 305 678 q 281 668 291 678 q 271 644 271 659 q 281 620 271 630 q 305 610 291 610 l 780 610 q 996 521 906 610 q 1085 305 1085 431 q 996 90 1085 179 q 780 0 906 0 l -136 0 l 136 271 l 780 271 q 804 281 794 271 q 814 305 814 291 q 804 329 814 319 q 780 339 794 339 l 305 339 q 90 429 179 339 q 0 644 0 518 q 90 860 0 770 q 305 949 179 949 l 1221 949 z "},"T":{"ha":1153,"x_min":0,"x_max":1221,"o":"m 1221 949 l 949 678 l 678 678 l 678 170 l 407 -102 l 407 678 l 0 678 l 0 949 l 1221 949 z "},"U":{"ha":1153,"x_min":0,"x_max":1085,"o":"m 0 475 l 0 780 l 271 1051 l 271 475 q 331 331 271 391 q 475 271 391 271 l 610 271 q 754 331 694 271 q 814 475 814 391 l 814 949 l 1085 949 l 1085 475 q 946 139 1085 278 q 610 0 807 0 l 475 0 q 139 139 278 0 q 0 475 0 278 z "},"V":{"ha":1153,"x_min":0,"x_max":1085,"o":"m 0 678 l 0 780 l 271 1051 l 271 678 q 331 433 271 526 q 543 278 391 339 q 754 433 694 339 q 814 678 814 526 l 814 949 l 1085 949 l 1085 678 q 946 241 1085 414 q 543 0 807 68 q 139 241 278 68 q 0 678 0 414 z "},"W":{"ha":1695,"x_min":0,"x_max":1628,"o":"m 0 475 l 0 780 l 271 1051 l 271 475 q 331 331 271 391 q 475 271 391 271 q 618 331 559 271 q 678 475 678 391 l 678 949 l 949 949 l 949 475 q 1009 331 949 391 q 1153 271 1069 271 q 1297 331 1237 271 q 1356 475 1356 391 l 1356 949 l 1628 949 l 1628 475 q 1489 139 1628 278 q 1153 0 1350 0 q 817 139 956 0 l 814 142 l 810 139 q 475 0 671 0 q 139 139 278 0 q 0 475 0 278 z "},"X":{"ha":1153,"x_min":0,"x_max":1085,"o":"m 142 475 l 139 478 q 0 746 0 617 l 0 780 l 271 1051 l 271 814 q 331 670 271 730 q 475 610 391 610 l 610 610 q 754 670 694 610 q 814 814 814 730 l 814 949 l 1085 949 l 1085 814 q 946 478 1085 617 l 943 475 l 946 471 q 1085 203 1085 332 l 1085 170 l 814 -102 l 814 136 q 754 279 814 220 q 610 339 694 339 l 475 339 q 331 279 391 339 q 271 136 271 220 l 271 0 l 0 0 l 0 136 q 139 471 0 332 l 142 475 z "},"Y":{"ha":1153,"x_min":0,"x_max":1085,"o":"m 0 746 l 0 780 l 271 1051 l 271 746 q 331 602 271 662 q 475 543 391 543 l 610 543 q 754 602 694 543 q 814 746 814 662 l 814 949 l 1085 949 l 1085 746 q 946 410 1085 549 q 678 275 831 296 l 678 0 l 407 0 l 407 275 q 139 410 254 296 q 0 746 0 549 z "},"Z":{"ha":1153,"x_min":-136,"x_max":1221,"o":"m 1221 949 l 531 271 l 1085 271 l 1085 0 l -136 0 l 554 678 l 0 678 l 0 949 l 1221 949 z "},"[":{"ha":543,"x_min":0,"x_max":475,"o":"m 475 1017 l 475 746 l 271 746 l 271 203 l 475 203 l 475 -68 l 0 -68 l 0 1017 l 475 1017 z "},"\\":{"ha":1153,"x_min":-136,"x_max":1221,"o":"m 1221 0 l 825 0 l -136 949 l 260 949 l 1221 0 z "},"]":{"ha":543,"x_min":0,"x_max":475,"o":"m 0 -68 l 0 203 l 203 203 l 203 746 l 0 746 l 0 1017 l 475 1017 l 475 -68 l 0 -68 z "},"^":{"ha":339,"x_min":0,"x_max":271,"o":"m 0 949 l 271 949 l 271 610 l 0 610 l 0 949 z "},"_":{"ha":1017,"x_min":0,"x_max":949,"o":"m 949 0 l 0 0 l 0 271 l 949 271 l 949 0 z "},"`":{"ha":339,"x_min":0,"x_max":271,"o":"m 0 949 l 271 949 l 271 407 l 0 678 l 0 949 z "},"a":{"ha":1153,"x_min":0,"x_max":1085,"o":"m 610 949 q 946 810 807 949 q 1085 475 1085 671 l 1085 170 l 814 -102 l 814 203 l 271 203 l 271 0 l 0 0 l 0 475 q 139 810 0 671 q 475 949 278 949 l 610 949 m 814 475 q 754 618 814 559 q 610 678 694 678 l 475 678 q 331 618 391 678 q 271 475 271 559 l 814 475 z "},"b":{"ha":1153,"x_min":0,"x_max":1085,"o":"m 780 949 q 996 860 906 949 q 1085 644 1085 770 q 1034 475 1085 549 q 1085 305 1085 400 q 996 90 1085 179 q 780 0 906 0 l 576 0 l 305 271 l 780 271 q 804 281 794 271 q 814 305 814 291 q 804 329 814 319 q 780 339 794 339 l 271 339 l 271 -102 l 0 170 l 0 949 l 780 949 m 271 678 l 271 610 l 780 610 q 804 620 794 610 q 814 644 814 630 q 804 668 814 659 q 780 678 794 678 l 271 678 z "},"c":{"ha":1153,"x_min":0,"x_max":1221,"o":"m 475 271 l 1085 271 l 1085 0 l 475 0 q 139 139 278 0 q 0 475 0 278 q 139 810 0 671 q 475 949 278 949 l 1221 949 l 949 678 l 475 678 q 331 618 391 678 q 271 475 271 559 q 331 331 271 391 q 475 271 391 271 z "},"d":{"ha":1153,"x_min":0,"x_max":1085,"o":"m 610 0 l 576 0 l 305 271 l 610 271 q 754 331 694 271 q 814 475 814 391 q 754 618 814 559 q 610 678 694 678 l 271 678 l 271 -102 l 0 170 l 0 949 l 610 949 q 946 810 807 949 q 1085 475 1085 671 q 946 139 1085 278 q 610 0 807 0 z "},"e":{"ha":1153,"x_min":0,"x_max":1221,"o":"m 271 271 l 1085 271 l 1085 0 l 0 0 l 0 949 l 1221 949 l 949 678 l 271 678 l 271 610 l 949 610 l 949 339 l 271 339 l 271 271 z "},"f":{"ha":1153,"x_min":0,"x_max":1221,"o":"m 1221 949 l 949 678 l 271 678 l 271 610 l 1085 610 l 1085 339 l 271 339 l 271 -102 l 0 170 l 0 949 l 1221 949 z "},"g":{"ha":1153,"x_min":0,"x_max":1221,"o":"m 475 949 l 1221 949 l 949 678 l 475 678 q 331 618 391 678 q 271 475 271 559 q 331 331 271 391 q 475 271 391 271 l 814 271 l 814 339 l 475 339 l 475 610 l 1085 610 l 1085 0 l 475 0 q 139 139 278 0 q 0 475 0 278 q 139 810 0 671 q 475 949 278 949 z "},"h":{"ha":1153,"x_min":0,"x_max":1085,"o":"m 271 339 l 271 0 l 0 0 l 0 780 l 271 1051 l 271 610 l 814 610 l 814 949 l 1085 949 l 1085 170 l 814 -102 l 814 339 l 271 339 z "},"i":{"ha":339,"x_min":0,"x_max":271,"o":"m 271 0 l 0 0 l 0 780 l 271 1051 l 271 0 z "},"j":{"ha":1153,"x_min":0,"x_max":1085,"o":"m 814 475 l 814 1051 l 1085 780 l 1085 475 q 946 139 1085 278 q 610 0 807 0 l 475 0 q 139 139 278 0 q 0 475 0 278 l 0 543 l 271 543 l 271 475 q 331 331 271 391 q 475 271 391 271 l 610 271 q 754 331 694 271 q 814 475 814 391 z "},"k":{"ha":1153,"x_min":0,"x_max":1085,"o":"m 271 610 l 610 610 q 754 670 694 610 q 814 814 814 730 l 814 949 l 1085 949 l 1085 814 q 946 478 1085 617 l 943 475 l 946 471 q 1085 203 1085 332 l 1085 170 l 814 -102 l 814 136 q 754 279 814 220 q 610 339 694 339 l 271 339 l 271 0 l 0 0 l 0 780 l 271 1051 l 271 610 z "},"l":{"ha":1153,"x_min":0,"x_max":1221,"o":"m 271 271 l 949 271 l 1221 0 l 0 0 l 0 949 l 271 949 l 271 271 z "},"m":{"ha":1153,"x_min":0,"x_max":1085,"o":"m 271 554 l 271 -102 l 0 170 l 0 949 l 260 949 l 543 667 l 825 949 l 1085 949 l 1085 0 l 814 0 l 814 554 l 543 283 l 271 554 z "},"n":{"ha":1153,"x_min":0,"x_max":1085,"o":"m 814 395 l 814 1051 l 1085 780 l 1085 0 l 825 0 l 271 554 l 271 -102 l 0 170 l 0 949 l 260 949 l 814 395 z "},"o":{"ha":1153,"x_min":0,"x_max":1085,"o":"m 475 0 q 139 139 278 0 q 0 475 0 278 q 139 810 0 671 q 475 949 278 949 l 610 949 q 946 810 807 949 q 1085 475 1085 671 q 946 139 1085 278 q 610 0 807 0 l 475 0 m 475 678 q 331 618 391 678 q 271 475 271 559 q 331 331 271 391 q 475 271 391 271 l 610 271 q 754 331 694 271 q 814 475 814 391 q 754 618 814 559 q 610 678 694 678 l 475 678 z "},"p":{"ha":1153,"x_min":0,"x_max":1085,"o":"m 780 949 q 996 860 906 949 q 1085 644 1085 770 q 996 429 1085 518 q 780 339 906 339 l 271 339 l 271 -102 l 0 170 l 0 949 l 780 949 m 271 678 l 271 610 l 780 610 q 804 620 794 610 q 814 644 814 630 q 804 668 814 659 q 780 678 794 678 l 271 678 z "},"q":{"ha":1153,"x_min":0,"x_max":1085,"o":"m 475 678 q 331 618 391 678 q 271 475 271 559 q 331 331 271 391 q 475 271 391 271 l 610 271 q 754 331 694 271 q 814 475 814 391 q 754 618 814 559 q 610 678 694 678 l 475 678 m 475 0 q 139 139 278 0 q 0 475 0 278 q 139 810 0 671 q 475 949 278 949 l 610 949 q 946 810 807 949 q 1085 475 1085 671 q 946 139 1085 278 q 872 77 911 104 l 1085 -136 l 701 -136 l 566 0 l 475 0 z "},"r":{"ha":1153,"x_min":0,"x_max":1238,"o":"m 780 949 q 996 860 906 949 q 1085 644 1085 770 q 996 429 1085 518 q 882 356 945 378 l 1238 0 l 854 0 l 271 583 l 271 -102 l 0 170 l 0 949 l 780 949 m 271 678 l 271 610 l 780 610 q 804 620 794 610 q 814 644 814 630 q 804 668 814 659 q 780 678 794 678 l 271 678 z "},"s":{"ha":1153,"x_min":-136,"x_max":1221,"o":"m 1221 949 l 949 678 l 305 678 q 281 668 291 678 q 271 644 271 659 q 281 620 271 630 q 305 610 291 610 l 780 610 q 996 521 906 610 q 1085 305 1085 431 q 996 90 1085 179 q 780 0 906 0 l -136 0 l 136 271 l 780 271 q 804 281 794 271 q 814 305 814 291 q 804 329 814 319 q 780 339 794 339 l 305 339 q 90 429 179 339 q 0 644 0 518 q 90 860 0 770 q 305 949 179 949 l 1221 949 z "},"t":{"ha":1153,"x_min":0,"x_max":1221,"o":"m 1221 949 l 949 678 l 678 678 l 678 170 l 407 -102 l 407 678 l 0 678 l 0 949 l 1221 949 z "},"u":{"ha":1153,"x_min":0,"x_max":1085,"o":"m 0 475 l 0 780 l 271 1051 l 271 475 q 331 331 271 391 q 475 271 391 271 l 610 271 q 754 331 694 271 q 814 475 814 391 l 814 949 l 1085 949 l 1085 475 q 946 139 1085 278 q 610 0 807 0 l 475 0 q 139 139 278 0 q 0 475 0 278 z "},"v":{"ha":1153,"x_min":0,"x_max":1085,"o":"m 0 678 l 0 780 l 271 1051 l 271 678 q 331 433 271 526 q 543 278 391 339 q 754 433 694 339 q 814 678 814 526 l 814 949 l 1085 949 l 1085 678 q 946 241 1085 414 q 543 0 807 68 q 139 241 278 68 q 0 678 0 414 z "},"w":{"ha":1695,"x_min":0,"x_max":1628,"o":"m 0 475 l 0 780 l 271 1051 l 271 475 q 331 331 271 391 q 475 271 391 271 q 618 331 559 271 q 678 475 678 391 l 678 949 l 949 949 l 949 475 q 1009 331 949 391 q 1153 271 1069 271 q 1297 331 1237 271 q 1356 475 1356 391 l 1356 949 l 1628 949 l 1628 475 q 1489 139 1628 278 q 1153 0 1350 0 q 817 139 956 0 l 814 142 l 810 139 q 475 0 671 0 q 139 139 278 0 q 0 475 0 278 z "},"x":{"ha":1153,"x_min":0,"x_max":1085,"o":"m 142 475 l 139 478 q 0 746 0 617 l 0 780 l 271 1051 l 271 814 q 331 670 271 730 q 475 610 391 610 l 610 610 q 754 670 694 610 q 814 814 814 730 l 814 949 l 1085 949 l 1085 814 q 946 478 1085 617 l 943 475 l 946 471 q 1085 203 1085 332 l 1085 170 l 814 -102 l 814 136 q 754 279 814 220 q 610 339 694 339 l 475 339 q 331 279 391 339 q 271 136 271 220 l 271 0 l 0 0 l 0 136 q 139 471 0 332 l 142 475 z "},"y":{"ha":1153,"x_min":0,"x_max":1085,"o":"m 0 746 l 0 780 l 271 1051 l 271 746 q 331 602 271 662 q 475 543 391 543 l 610 543 q 754 602 694 543 q 814 746 814 662 l 814 949 l 1085 949 l 1085 746 q 946 410 1085 549 q 678 275 831 296 l 678 0 l 407 0 l 407 275 q 139 410 254 296 q 0 746 0 549 z "},"z":{"ha":1153,"x_min":-136,"x_max":1221,"o":"m 1221 949 l 531 271 l 1085 271 l 1085 0 l -136 0 l 554 678 l 0 678 l 0 949 l 1221 949 z "},"{":{"ha":678,"x_min":0,"x_max":610,"o":"m 140 610 q 275 878 160 764 q 610 1017 414 1017 l 610 746 q 467 686 526 746 q 407 543 407 627 l 407 407 q 467 263 407 323 q 610 203 526 203 l 610 -68 q 275 71 414 -68 q 140 339 160 186 l 0 339 l 0 610 l 140 610 z "},"|":{"ha":339,"x_min":0,"x_max":271,"o":"m 271 1017 l 271 -68 l 0 -68 l 0 1017 l 271 1017 z "},"}":{"ha":678,"x_min":0,"x_max":610,"o":"m 471 610 l 610 610 l 610 339 l 471 339 q 336 71 450 186 q 0 -68 197 -68 l 0 203 q 144 263 84 203 q 203 407 203 323 l 203 543 q 144 686 203 627 q 0 746 84 746 l 0 1017 q 336 878 197 1017 q 471 610 450 764 z "},"~":{"ha":882,"x_min":0,"x_max":814,"o":"m 814 339 l 0 339 l 0 610 l 814 610 l 814 339 z "}}}
